# xmcd CD database file
#
# Track frame offsets:
#	150
#	29466
#	69144
#	87514
#	115756
#	141343
#	186049
#	215647
#	230486
#	246257
#
# Disc length: 3710 seconds
#
# Revision: 4
# Processed by: cddbd v1.5.2PL0 Copyright (c) Steve Scherf et al.
# Submitted via: CDex 1.51
#
DISCID=8d0e7c0a
DTITLE=Miles Davis - Vol.6 - Out of the Blue - Conception 1951-1953
DYEAR=1900
DGENRE=Jazz
TTITLE0=Move [Mod] (Danzil Best) Miles Davis Sextet
TTITLE1=The Squirrel (Tadd Dameron) Miles Davis Sextet
TTITLE2=Conception (George Shearing) Miles Davis Sextet
TTITLE3=Out Of The Blue (Miles Davis) Miles Davis Sextet
TTITLE4=Denial (Miles Davis) Miles Davis Sextet
TTITLE5=Bluing (Miles Davis) Miles Davis Sextet
TTITLE6=My Old Flame (Johnson - Coslow) Miles Davis Sextet
TTITLE7=Donna (Jackie McLean) Miles Davis Sextet
TTITLE8=Woody'n You [alt. Take] (Dizzy Gillespie - W.G. Fuller) Miles Davis Sextet
TTITLE9=Round About Midnight (Thelonious Monk)  Miles Davis Sextet
EXTD=
EXTT0=
EXTT1=
EXTT2=
EXTT3=
EXTT4=
EXTT5=
EXTT6=
EXTT7=
EXTT8=
EXTT9=
PLAYORDER=
